<svg width="40" height="40" viewBox="0 0 40 40" fill="#28667c" xmlns="http://www.w3.org/2000/svg">
<path d="M31.5156 4.88597L12.0668 14.3815V20.479L8.67399 18.9123V12.8147L28.1227 3.3193L21.5903 0.302902C20.7156 -0.100967 19.2844 -0.100967 18.4097 0.302902L2.32399 7.73071C1.04249 8.32246 -0.00326033 9.99821 7.63853e-06 11.4547L0.0396155 28.8675C0.0429488 30.3395 1.11203 32.0171 2.4153 32.5958L18.4588 39.7183C19.3049 40.0939 20.6895 40.0939 21.5356 39.7185L37.5846 32.5957C38.8878 32.0173 39.957 30.3399 39.9603 28.8679L40 11.4547C40.0033 9.99821 38.9576 8.32246 37.676 7.73071L31.5156 4.88597ZM36.3659 18.824L35.4245 19.2776L35.4054 26.1572C35.4046 26.4578 35.1489 26.8157 34.835 26.9563L33.4257 27.5882C33.1167 27.7267 32.8668 27.5983 32.8666 27.3015L32.8618 20.5124L31.95 20.9517C31.5211 21.1583 31.2527 20.8343 31.4656 20.3679L33.6452 15.5923C33.8652 15.1102 34.4169 14.8322 34.6376 15.0936L36.8743 17.7416C37.0976 18.006 36.8142 18.6081 36.3659 18.824ZM27.1631 29.8723C27.1656 30.1603 26.9311 30.4994 26.6402 30.6299L25.3333 31.2158C25.0467 31.3443 24.8122 31.2178 24.809 30.9334L24.7324 24.429L23.8868 24.8364C23.4891 25.0281 23.2353 24.7137 23.4289 24.2701L25.4099 19.7304C25.6097 19.2724 26.1206 19.0149 26.329 19.2685L28.4402 21.8367C28.651 22.093 28.3937 22.6649 27.9786 22.8648L27.1069 23.2848L27.1631 29.8723ZM37.9216 27.9836C37.9206 28.1347 37.7899 28.3139 37.6296 28.3838L22.7018 34.8967C22.5625 34.9575 22.448 34.8937 22.4459 34.7544L22.4345 33.9967C22.4324 33.8571 22.5437 33.6938 22.6832 33.6321L37.6376 27.0163C37.798 26.9453 37.9276 27.0105 37.9267 27.162L37.9216 27.9836Z" fill="#28667C"/>
</svg>
