<svg width="47" height="60" viewBox="0 0 47 60" fill="none" xmlns="http://www.w3.org/2000/svg">
<path d="M43.9348 0H3.06522C1.37232 0 0 1.34312 0 3V57C0 58.6569 1.37232 60 3.06522 60H43.9348C45.6277 60 47 58.6569 47 57V3C47 1.34312 45.6277 0 43.9348 0ZM44.9565 57C44.9565 57.5522 44.499 58 43.9348 58H3.06522C2.50096 58 2.04348 57.5522 2.04348 57V3C2.04348 2.44775 2.50096 2 3.06522 2H43.9348C44.499 2 44.9565 2.44775 44.9565 3V57Z" fill="#28667C"/>
<path d="M37.8043 0H1.02174C0.457484 0 0 0.44775 0 1V13C0 13.5522 0.457484 14 1.02174 14H37.8043C38.3686 14 38.8261 13.5522 38.8261 13V1C38.8261 0.44775 38.3686 0 37.8043 0ZM36.7826 12H2.04348V2H36.7826V12Z" transform="translate(4.08691 11)" fill="#28667C"/>
<path d="M16.3478 0H1.02174C0.457484 0 0 0.44775 0 1V4C0 4.55225 0.457484 5 1.02174 5H16.3478C16.9121 5 17.3696 4.55225 17.3696 4V1C17.3696 0.44775 16.9121 0 16.3478 0ZM15.3261 3H2.04348V2H15.3261V3Z" transform="translate(4.08691 4)" fill="#28667C"/>
<path d="M7.15217 0H1.02174C0.457484 0 0 0.44775 0 1V7C0 7.55225 0.457484 8 1.02174 8H7.15217C7.71643 8 8.17391 7.55225 8.17391 7V1C8.17391 0.44775 7.71643 0 7.15217 0ZM6.13043 6H2.04348V2H6.13043V6Z" transform="translate(4.08691 27)" fill="#28667C"/>
<path d="M7.15217 0H1.02174C0.457484 0 0 0.44775 0 1V7C0 7.55225 0.457484 8 1.02174 8H7.15217C7.71643 8 8.17391 7.55225 8.17391 7V1C8.17391 0.44775 7.71643 0 7.15217 0ZM6.13043 6H2.04348V2H6.13043V6Z" transform="translate(14.3043 27)" fill="#28667C"/>
<path d="M7.15217 0H1.02174C0.457484 0 0 0.44775 0 1V7C0 7.55225 0.457484 8 1.02174 8H7.15217C7.71643 8 8.17391 7.55225 8.17391 7V1C8.17391 0.44775 7.71643 0 7.15217 0ZM6.13043 6H2.04348V2H6.13043V6Z" transform="translate(24.5217 27)" fill="#28667C"/>
<path d="M7.15217 0H1.02174C0.457484 0 0 0.44775 0 1V7C0 7.55225 0.457484 8 1.02174 8H7.15217C7.71643 8 8.17391 7.55225 8.17391 7V1C8.17391 0.44775 7.71643 0 7.15217 0ZM6.13043 6H2.04348V2H6.13043V6Z" transform="translate(34.7391 27)" fill="#28667C"/>
<path d="M7.15217 0H1.02174C0.457484 0 0 0.44775 0 1V7C0 7.55225 0.457484 8 1.02174 8H7.15217C7.71643 8 8.17391 7.55225 8.17391 7V1C8.17391 0.44775 7.71643 0 7.15217 0ZM6.13043 6H2.04348V2H6.13043V6Z" transform="translate(4.08691 37)" fill="#28667C"/>
<path d="M7.15217 0H1.02174C0.457484 0 0 0.44775 0 1V7C0 7.55225 0.457484 8 1.02174 8H7.15217C7.71643 8 8.17391 7.55225 8.17391 7V1C8.17391 0.44775 7.71643 0 7.15217 0ZM6.13043 6H2.04348V2H6.13043V6Z" transform="translate(14.3043 37)" fill="#28667C"/>
<path d="M7.15217 0H1.02174C0.457484 0 0 0.44775 0 1V7C0 7.55225 0.457484 8 1.02174 8H7.15217C7.71643 8 8.17391 7.55225 8.17391 7V1C8.17391 0.44775 7.71643 0 7.15217 0ZM6.13043 6H2.04348V2H6.13043V6Z" transform="translate(24.5217 37)" fill="#28667C"/>
<path d="M7.15217 0H1.02174C0.457484 0 0 0.44775 0 1V17C0 17.5522 0.457484 18 1.02174 18H7.15217C7.71643 18 8.17391 17.5522 8.17391 17V1C8.17391 0.44775 7.71643 0 7.15217 0ZM6.13043 16H2.04348V2H6.13043V16Z" transform="translate(34.7391 37)" fill="#28667C"/>
<path d="M7.15217 0H1.02174C0.457484 0 0 0.44775 0 1V7C0 7.55225 0.457484 8 1.02174 8H7.15217C7.71643 8 8.17391 7.55225 8.17391 7V1C8.17391 0.44775 7.71643 0 7.15217 0ZM6.13043 6H2.04348V2H6.13043V6Z" transform="translate(4.08691 47)" fill="#28667C"/>
<path d="M7.15217 0H1.02174C0.457484 0 0 0.44775 0 1V7C0 7.55225 0.457484 8 1.02174 8H7.15217C7.71643 8 8.17391 7.55225 8.17391 7V1C8.17391 0.44775 7.71643 0 7.15217 0ZM6.13043 6H2.04348V2H6.13043V6Z" transform="translate(14.3043 47)" fill="#28667C"/>
<path d="M7.15217 0H1.02174C0.457484 0 0 0.44775 0 1V7C0 7.55225 0.457484 8 1.02174 8H7.15217C7.71643 8 8.17391 7.55225 8.17391 7V1C8.17391 0.44775 7.71643 0 7.15217 0ZM6.13043 6H2.04348V2H6.13043V6Z" transform="translate(24.5217 47)" fill="#28667C"/>
</svg>
