<svg width="40" height="40" viewBox="0 0 40 40" fill="none" xmlns="http://www.w3.org/2000/svg">
<path d="M19.9997 0C8.95428 0 0 8.95455 0 19.9997C0 31.0448 8.95428 40 19.9997 40C31.045 40 40 31.0448 40 19.9997C40 8.95455 31.045 0 19.9997 0ZM28.6461 23.8036H20.167C20.1383 23.8036 20.1117 23.7967 20.0833 23.7956C20.0549 23.7969 20.0283 23.8036 19.9995 23.8036C19.2357 23.8036 18.6163 23.1843 18.6163 22.4204V8.3C18.6163 7.53613 19.2357 6.91678 19.9995 6.91678C20.7634 6.91678 21.3828 7.53613 21.3828 8.3V21.0372H28.6455C29.4094 21.0372 30.0288 21.6565 30.0288 22.4204C30.0288 23.1843 29.41 23.8036 28.6461 23.8036Z" fill="#28667C"/>
</svg>
