<svg width="36" height="40" viewBox="0 0 36 40" fill="none" xmlns="http://www.w3.org/2000/svg">
<path d="M35.2327 23.4194C34.693 17.4539 31.4217 13.7155 28.5358 10.4166C25.8635 7.36257 23.5556 4.72523 23.5556 0.83476C23.5556 0.52226 23.3494 0.236636 23.0226 0.0934325C22.6948 -0.0506299 22.3009 -0.0270362 22.0028 0.15687C17.6686 2.79015 14.0523 7.22835 12.789 11.463C11.912 14.4112 11.796 17.7256 11.7797 19.9146C7.77711 19.1887 6.8704 14.1053 6.86083 14.0499C6.81574 13.7862 6.62601 13.5568 6.34997 13.4315C6.07108 13.3078 5.74323 13.2988 5.46047 13.4176C5.25059 13.5039 0.308614 15.6359 0.0210708 24.1485C0.000919797 24.4317 0 24.7158 0 24.9998C0 33.2698 7.92562 39.9987 17.6667 39.9987C17.6801 39.9995 17.6945 40.0011 17.706 39.9987C17.7098 39.9987 17.7136 39.9987 17.7184 39.9987C27.4355 39.9751 35.3333 33.2552 35.3333 24.9998C35.3333 24.5839 35.2327 23.4194 35.2327 23.4194ZM17.6667 38.3322C14.4193 38.3322 11.7778 35.943 11.7778 33.0062C11.7778 32.9062 11.7769 32.8052 11.7854 32.6815C11.8247 31.443 12.1018 30.5976 12.4056 30.0352C12.975 31.0736 13.9928 32.0281 15.6462 32.0281C16.1887 32.0281 16.6277 31.6554 16.6277 31.1948C16.6277 30.0084 16.6565 28.6397 17.0044 27.4044C17.3141 26.309 18.054 25.1437 18.9914 24.2096C19.4083 25.4221 20.2212 26.4034 21.0148 27.3612C22.1506 28.7315 23.3247 30.1483 23.5308 32.5644C23.5432 32.7076 23.5557 32.8516 23.5557 33.0062C23.5556 35.9429 20.914 38.3322 17.6667 38.3322Z" fill="#28667C"/>
</svg>
