<svg width="190" height="170" viewBox="0 0 190 170" fill="none" xmlns="http://www.w3.org/2000/svg">
<path d="M190 0H0V170H190V0Z" fill="#508BA4"/>
<path d="M0 13.0935V0H13.1123" transform="translate(17.2331 20.519)" stroke="#29667D" stroke-width="4" stroke-miterlimit="10"/>
<path d="M0 0H13.1084V13.0975" transform="translate(158.551 20.5146)" stroke="#29667D" stroke-width="4" stroke-miterlimit="10"/>
<path d="M13.1137 0V13.0935H0" transform="translate(158.547 140.002)" stroke="#29667D" stroke-width="4" stroke-miterlimit="10"/>
<path d="M13.1084 13.0988H0V0" transform="translate(17.2344 140)" stroke="#29667D" stroke-width="4" stroke-miterlimit="10"/>
<path d="M1.89625 0.507555V12.1048H8.03361C8.42398 12.1048 8.56027 12.2423 8.56027 12.6124V13.3552C8.56027 13.7253 8.42398 13.8628 8.03361 13.8628H0.508137C0.136296 13.8628 0 13.7253 0 13.3552V0.507555C0 0.137458 0.136296 0 0.508137 0H1.36827C1.75864 0 1.89625 0.137458 1.89625 0.507555Z" transform="translate(37.3998 114.82)" fill="white"/>
<path d="M5.47307 0C9.01151 0 10.9461 1.91393 10.9461 4.99763V9.44936C10.9461 12.5344 9.01151 14.4483 5.47307 14.4483C1.93595 14.4483 0 12.5344 0 9.44936V4.99763C0 1.91393 1.93595 0 5.47307 0ZM5.47307 1.75795C3.16792 1.75795 1.89758 2.92905 1.89758 4.99763V9.44936C1.89758 11.5193 3.16792 12.6904 5.47307 12.6904C7.77954 12.6904 9.04989 11.5193 9.04989 9.44936V4.99763C9.04989 2.92905 7.77954 1.75795 5.47307 1.75795Z" transform="translate(49.9431 114.529)" fill="white"/>
<path d="M10.9448 7.30147V9.80096C10.9448 12.5344 9.01019 14.447 5.47175 14.447C1.93463 14.447 0 12.5344 0 9.44936V4.99763C0 1.91393 1.93463 0 5.47175 0C8.40413 0 10.0278 1.17108 10.7305 3.31897C10.8482 3.69039 10.7688 3.84636 10.3983 3.98251L9.5964 4.25611C9.22456 4.39358 9.06841 4.31427 8.93212 3.94418C8.4425 2.47965 7.42755 1.75795 5.47175 1.75795C3.1269 1.75795 1.89625 2.92773 1.89625 4.9778V9.44936C1.89625 11.4994 3.1666 12.6904 5.47175 12.6904C7.77822 12.6904 9.06841 11.4994 9.06841 9.80096V8.53205H5.68744C5.29575 8.53205 5.18063 8.41441 5.18063 8.02449V7.28165C5.18063 6.91155 5.29575 6.77541 5.68744 6.77541H10.4182C10.8085 6.77541 10.9448 6.91155 10.9448 7.30147Z" transform="translate(65.8873 114.529)" fill="white"/>
<path d="M0.508142 0H1.36695C1.75864 0 1.89626 0.137458 1.89626 0.507555V13.3552C1.89626 13.7253 1.75864 13.8614 1.36695 13.8614H0.508142C0.136301 13.8614 0 13.7253 0 13.3552V0.507555C0 0.137458 0.136301 0 0.508142 0Z" transform="translate(82.0842 114.82)" fill="white"/>
<path d="M5.41387 0C8.13056 0 9.5769 0.996611 10.535 2.9872C10.7109 3.33879 10.613 3.5146 10.261 3.67057L9.4406 4.04198C9.08861 4.19795 8.95231 4.13979 8.77632 3.7882C8.11071 2.49947 7.19235 1.81612 5.41387 1.81612C3.28339 1.81612 2.14935 2.57746 2.14935 4.02216C2.14935 5.75897 3.94901 6.0524 5.90216 6.26785C8.22848 6.54013 10.8089 7.0477 10.8089 10.212C10.8089 12.7882 8.91261 14.4483 5.39402 14.4483C2.46296 14.4483 0.918703 13.3156 0.0585729 11.1082C-0.0777246 10.7381 0.0201972 10.5821 0.390715 10.4447L1.19262 10.1525C1.54329 10.0362 1.69944 10.0944 1.85691 10.4645C2.48149 11.9105 3.63539 12.6705 5.39402 12.6705C7.70182 12.6705 8.91262 11.9105 8.91262 10.2504C8.91262 8.57038 7.27043 8.27827 5.45224 8.06414C3.04917 7.80904 0.214715 7.41911 0.214715 4.13979C0.214715 1.69847 2.03157 0 5.41387 0Z" transform="translate(89.0787 114.529)" fill="white"/>
<path d="M10.2819 0.507555V1.2504C10.2819 1.62182 10.1442 1.75663 9.77372 1.75663H6.07913V13.3552C6.07913 13.7253 5.96136 13.8628 5.57099 13.8628H4.71086C4.32049 13.8628 4.20273 13.7253 4.20273 13.3552V1.75663H0.508142C0.117775 1.75663 0 1.62182 0 1.2504V0.507555C0 0.137458 0.117775 0 0.508142 0H9.77372C10.1442 0 10.2819 0.137458 10.2819 0.507555Z" transform="translate(103.77 114.82)" fill="white"/>
<path d="M0.508142 0H1.36695C1.75864 0 1.89626 0.137458 1.89626 0.507555V13.3552C1.89626 13.7253 1.75864 13.8614 1.36695 13.8614H0.508142C0.136301 13.8614 0 13.7253 0 13.3552V0.507555C0 0.137458 0.136301 0 0.508142 0Z" transform="translate(118.699 114.82)" fill="white"/>
<path d="M5.47307 0C8.40545 0 10.0265 1.17242 10.7318 3.3203C10.8482 3.6904 10.7702 3.84636 10.3983 3.98383L9.5964 4.25744C9.22588 4.37375 9.06974 4.31559 8.93212 3.94418C8.44383 2.47965 7.42755 1.75795 5.47307 1.75795C3.14675 1.75795 1.89625 2.92905 1.89625 4.97912V9.46918C1.89625 11.4994 3.1666 12.6917 5.47307 12.6917C7.46725 12.6917 8.46368 11.929 8.95197 10.4645C9.08826 10.0746 9.24573 9.99526 9.61625 10.1327L10.4182 10.4262C10.79 10.5438 10.8879 10.7183 10.7503 11.0897C10.0463 13.2376 8.44383 14.4483 5.47307 14.4483C1.95448 14.4483 0 12.5344 0 9.44936V4.99763C0 1.91393 1.93463 0 5.47307 0Z" transform="translate(126.005 114.529)" fill="white"/>
<path d="M5.41519 0C8.13188 0 9.57822 0.996611 10.535 2.9872C10.7109 3.33879 10.6143 3.5146 10.2624 3.67057L9.4406 4.04198C9.08861 4.19795 8.95231 4.13979 8.77632 3.7882C8.11203 2.49947 7.19368 1.81612 5.41519 1.81612C3.28472 1.81612 2.15068 2.57746 2.15068 4.02216C2.15068 5.75897 3.94901 6.0524 5.90349 6.26785C8.22981 6.54013 10.8089 7.0477 10.8089 10.212C10.8089 12.7882 8.91394 14.4483 5.39402 14.4483C2.46429 14.4483 0.920026 13.3156 0.0585729 11.1082C-0.0777246 10.7381 0.0201972 10.5821 0.390715 10.4447L1.19395 10.1525C1.54461 10.0362 1.70076 10.0944 1.85823 10.4645C2.48282 11.9105 3.63539 12.6705 5.39402 12.6705C7.70182 12.6705 8.91394 11.9105 8.91394 10.2504C8.91394 8.57038 7.27042 8.27827 5.45357 8.06414C3.04917 7.80904 0.214715 7.41911 0.214715 4.13979C0.214715 1.69847 2.0329 0 5.41519 0Z" transform="translate(141.089 114.529)" fill="white"/>
<path d="M21.273 0C9.52362 0 0 12.3758 0 27.6436C0 42.9101 9.52362 55.2872 21.273 55.2872C33.0224 55.2872 42.5473 42.9101 42.5473 27.6436C42.5473 12.3758 33.0224 0 21.273 0ZM33.3135 41.7892C33.3135 48.0888 28.5325 53.2424 22.6876 53.2424H19.8584C14.0148 53.2424 9.23382 48.0888 9.23382 41.7892V13.498C9.23382 7.19838 14.0148 2.04478 19.8584 2.04478H22.6876C28.5325 2.04478 33.3135 7.19838 33.3135 13.498V41.7892Z" transform="translate(116.403 47.8647)" fill="#E2BD63"/>
<path d="M24.6976 38.7624V40.638H33.3148V41.7905C33.3148 48.0888 28.5325 53.2424 22.6876 53.2424H19.8597C14.0161 53.2424 9.23382 48.0888 9.23382 41.7905V13.498C9.23382 7.1997 14.0161 2.04478 19.8597 2.04478H22.6876C27.6075 2.04478 31.7613 5.70081 32.9562 10.6125H38.0244C34.1299 4.15434 28.0773 0 21.2743 0C9.52495 0 0 12.3771 0 27.6436C0 42.9114 9.52495 55.2872 21.2743 55.2872C29.4085 55.2872 36.4721 49.3537 40.0529 40.638V38.7624H24.6976Z" transform="translate(32.5897 47.8647)" fill="white"/>
<path d="M0 0V53.2649C0 53.2649 0.344052 55.1828 6.69843 55.1828C13.0502 55.1828 31.0308 55.1537 31.0308 55.1537V53.2768L9.12532 53.2649V12.241L24.4793 12.3837V10.5081H9.12532V1.77118H31.0308V0H0Z" transform="translate(77.155 47.9697)" fill="white"/>
<path d="M21.2743 0C9.52495 0 0 12.3758 0 27.6436C0 42.9101 9.52495 55.2872 21.2743 55.2872C33.0237 55.2872 42.5486 42.9101 42.5486 27.6436C42.5486 12.3758 33.0237 0 21.2743 0ZM33.3148 41.7892C33.3148 48.0888 28.5338 53.2424 22.6889 53.2424H19.8597C14.0162 53.2424 9.23383 48.0888 9.23383 41.7892V13.498C9.23383 7.19838 14.0162 2.04478 19.8597 2.04478H22.6889C28.5338 2.04478 33.3148 7.19838 33.3148 13.498V41.7892Z" transform="translate(108.462 47.8647)" fill="white"/>
</svg>
