<svg width="298" height="100" viewBox="0 0 298 100" fill="none" xmlns="http://www.w3.org/2000/svg">
<path d="M10.2 4.8H0.66C0.36 4.8 0.26 4.9 0.26 5.2V5.76C0.26 6.06 0.36 6.16 0.66 6.16H4.7V18.6C4.7 18.9 4.8 19 5.1 19H5.76C6.06 19 6.16 18.9 6.16 18.6V6.16H10.2C10.5 6.16 10.6 6.06 10.6 5.76V5.2C10.6 4.9 10.5 4.8 10.2 4.8ZM18.1594 4.8H12.8194C12.5194 4.8 12.4194 4.9 12.4194 5.2V18.6C12.4194 18.9 12.5194 19 12.8194 19H13.4794C13.7794 19 13.8594 18.9 13.8594 18.6V13.66H18.1594C20.9394 13.66 22.6794 12.02 22.6794 9.24C22.6794 6.46 20.9394 4.8 18.1594 4.8ZM18.0394 12.32H13.8594V6.16H18.0394C19.9794 6.16 21.1794 7.3 21.1794 9.24C21.1794 11.18 19.9794 12.32 18.0394 12.32ZM34.8456 18.62L29.4856 5.06C29.3856 4.8 29.2456 4.74 28.9656 4.74H28.3656C28.0856 4.74 27.9656 4.8 27.8656 5.08L22.5056 18.62C22.4056 18.86 22.4656 19 22.7656 19H23.3056C23.7856 19 23.9256 18.92 24.0056 18.64L25.5056 14.84H31.7656L33.2656 18.64C33.3456 18.92 33.5056 19 33.9856 19H34.5656C34.8856 19 34.9456 18.86 34.8456 18.62ZM28.9656 7.5L31.3656 13.64H25.9256L28.3456 7.5C28.5656 6.82 28.5856 6.18 28.5856 6.12H28.6856C28.6856 6.18 28.7256 6.82 28.9656 7.5ZM46.7581 4.8H46.0981C45.7981 4.8 45.6981 4.9 45.6981 5.2V11.12H38.0781V5.2C38.0781 4.9 37.9981 4.8 37.6981 4.8H37.0381C36.7381 4.8 36.6381 4.9 36.6381 5.2V18.6C36.6381 18.9 36.7381 19 37.0381 19H37.6981C37.9981 19 38.0781 18.9 38.0781 18.6V12.48H45.6981V18.6C45.6981 18.9 45.7981 19 46.0981 19H46.7581C47.0381 19 47.1381 18.9 47.1381 18.6V5.2C47.1381 4.9 47.0381 4.8 46.7581 4.8ZM49.8314 9.54V14.26C49.8314 17.38 51.7914 19.28 55.3114 19.28C58.4314 19.28 59.9714 18.02 60.6714 15.78C60.7714 15.5 60.6914 15.38 60.4314 15.28L59.8114 15.04C59.5314 14.96 59.4114 15.02 59.2914 15.3C58.7514 17.04 57.6714 17.94 55.3114 17.94C52.6914 17.94 51.2914 16.56 51.2914 14.28V9.52C51.2914 7.22 52.6714 5.86 55.3114 5.86C57.6114 5.86 58.7114 6.7 59.2514 8.44C59.3714 8.72 59.4914 8.76 59.7714 8.68L60.3914 8.46C60.6714 8.36 60.7314 8.24 60.6314 7.94C59.9314 5.72 58.3714 4.52 55.3114 4.52C51.7314 4.52 49.8314 6.42 49.8314 9.54ZM72.9663 4.8H63.3662C63.0662 4.8 62.9663 4.9 62.9663 5.2V18.6C62.9663 18.9 63.0662 19 63.3662 19H64.0262C64.3262 19 64.4063 18.9 64.4063 18.6V6.16H71.9062V18.6C71.9062 18.9 72.0062 19 72.2863 19H72.9663C73.2463 19 73.3463 18.9 73.3463 18.6V5.2C73.3463 4.9 73.2463 4.8 72.9663 4.8ZM76.0423 9.54V14.26C76.0423 17.38 77.9623 19.28 81.5423 19.28C85.1023 19.28 87.0223 17.38 87.0223 14.26V9.54C87.0223 6.42 85.1023 4.52 81.5423 4.52C77.9623 4.52 76.0423 6.42 76.0423 9.54ZM85.5823 9.54V14.26C85.5823 16.58 84.1623 17.94 81.5423 17.94C78.9023 17.94 77.4823 16.58 77.4823 14.26V9.54C77.4823 7.22 78.9023 5.86 81.5423 5.86C84.1623 5.86 85.5823 7.22 85.5823 9.54ZM95.4641 4.8H90.1241C89.8241 4.8 89.7241 4.9 89.7241 5.2V18.6C89.7241 18.9 89.8241 19 90.1241 19H90.7841C91.0841 19 91.1641 18.9 91.1641 18.6V13.66H95.4641C98.2441 13.66 99.9841 12.02 99.9841 9.24C99.9841 6.46 98.2441 4.8 95.4641 4.8ZM95.3441 12.32H91.1641V6.16H95.3441C97.2841 6.16 98.4841 7.3 98.4841 9.24C98.4841 11.18 97.2841 12.32 95.3441 12.32ZM110.805 4.8H101.265C100.965 4.8 100.865 4.9 100.865 5.2V5.76C100.865 6.06 100.965 6.16 101.265 6.16H105.305V18.6C105.305 18.9 105.405 19 105.705 19H106.365C106.665 19 106.765 18.9 106.765 18.6V6.16H110.805C111.105 6.16 111.205 6.06 111.205 5.76V5.2C111.205 4.9 111.105 4.8 110.805 4.8ZM123.145 4.8H122.485C122.185 4.8 122.085 4.9 122.085 5.2V11.12H114.465V5.2C114.465 4.9 114.385 4.8 114.085 4.8H113.425C113.125 4.8 113.025 4.9 113.025 5.2V18.6C113.025 18.9 113.125 19 113.425 19H114.085C114.385 19 114.465 18.9 114.465 18.6V12.48H122.085V18.6C122.085 18.9 122.185 19 122.485 19H123.145C123.425 19 123.525 18.9 123.525 18.6V5.2C123.525 4.9 123.425 4.8 123.145 4.8ZM137.658 18.62L132.298 5.06C132.198 4.8 132.058 4.74 131.778 4.74H131.178C130.898 4.74 130.778 4.8 130.678 5.08L125.318 18.62C125.218 18.86 125.278 19 125.578 19H126.118C126.598 19 126.738 18.92 126.818 18.64L128.318 14.84H134.578L136.078 18.64C136.158 18.92 136.318 19 136.798 19H137.378C137.698 19 137.758 18.86 137.658 18.62ZM131.778 7.5L134.178 13.64H128.738L131.158 7.5C131.378 6.82 131.398 6.18 131.398 6.12H131.498C131.498 6.18 131.538 6.82 131.778 7.5ZM138.911 8.94C138.911 11.14 140.051 12.5 141.991 12.86C141.451 13.12 141.091 13.58 140.791 14.24L138.691 18.6C138.571 18.82 138.591 19 138.891 19H139.531C140.031 19 140.191 18.94 140.331 18.64L142.131 14.78C142.711 13.52 143.391 13.04 144.971 13.04H147.731V18.6C147.731 18.9 147.831 19 148.131 19H148.791C149.091 19 149.191 18.9 149.191 18.6V5.2C149.191 4.9 149.091 4.8 148.791 4.8H143.111C140.511 4.8 138.911 6.32 138.911 8.94ZM143.251 6.16H147.731V11.68H143.251C141.471 11.68 140.431 10.7 140.431 8.94C140.431 7.16 141.451 6.16 143.251 6.16ZM11.78 38.6L9.24 33.66C8.64 32.48 7.96 31.74 6.82 31.42L11.56 25.18C11.72 24.98 11.66 24.8 11.36 24.8H10.64C10.18 24.8 10.06 24.86 9.84 25.14L5.36 31.14H4.92H3V25.2C3 24.9 2.92 24.8 2.62 24.8H1.96C1.66 24.8 1.56 24.9 1.56 25.2V38.6C1.56 38.9 1.66 39 1.96 39H2.62C2.92 39 3 38.9 3 38.6V32.46H5.04C6.62 32.46 7.28 32.96 7.9 34.2L10.12 38.64C10.28 38.94 10.42 39 10.92 39H11.56C11.86 39 11.9 38.82 11.78 38.6ZM13.0541 29.54V34.26C13.0541 37.38 14.9741 39.28 18.5541 39.28C22.1141 39.28 24.0341 37.38 24.0341 34.26V29.54C24.0341 26.42 22.1141 24.52 18.5541 24.52C14.9741 24.52 13.0541 26.42 13.0541 29.54ZM22.5941 29.54V34.26C22.5941 36.58 21.1741 37.94 18.5541 37.94C15.9141 37.94 14.4941 36.58 14.4941 34.26V29.54C14.4941 27.22 15.9141 25.86 18.5541 25.86C21.1741 25.86 22.5941 27.22 22.5941 29.54ZM39.2358 24.8H38.6558C38.3358 24.8 38.2558 24.86 38.0958 25.14L33.1758 33.9L28.2158 25.12C28.0758 24.88 27.9758 24.8 27.6558 24.8H27.1358C26.8358 24.8 26.7358 24.9 26.7358 25.2V38.6C26.7358 38.9 26.8358 39 27.1358 39H27.6958C27.9958 39 28.0958 38.9 28.0958 38.6V30.46C28.0958 29.32 28.0358 28.2 27.8758 26.88H27.9558C28.4358 28.1 28.8358 28.98 29.4158 29.96L32.4958 35.38C32.6358 35.64 32.7358 35.68 32.9758 35.68H33.3758C33.6158 35.68 33.7158 35.62 33.8358 35.38L36.8758 30.02C37.4358 29.02 37.9158 28.08 38.4158 26.9H38.4958C38.3158 28.18 38.2558 29.36 38.2558 30.44L38.2358 38.6C38.2358 38.9 38.3358 39 38.6358 39H39.2358C39.5358 39 39.6358 38.9 39.6358 38.6V25.2C39.6358 24.9 39.5358 24.8 39.2358 24.8ZM52.7319 24.8H43.1319C42.8319 24.8 42.7319 24.9 42.7319 25.2V38.6C42.7319 38.9 42.8319 39 43.1319 39H43.7919C44.0919 39 44.1719 38.9 44.1719 38.6V26.16H51.6719V38.6C51.6719 38.9 51.7719 39 52.0519 39H52.7319C53.0119 39 53.1119 38.9 53.1119 38.6V25.2C53.1119 24.9 53.0119 24.8 52.7319 24.8ZM67.248 38.62L61.888 25.06C61.788 24.8 61.648 24.74 61.368 24.74H60.768C60.488 24.74 60.368 24.8 60.268 25.08L54.908 38.62C54.808 38.86 54.868 39 55.168 39H55.708C56.188 39 56.328 38.92 56.408 38.64L57.908 34.84H64.168L65.668 38.64C65.748 38.92 65.908 39 66.388 39H66.968C67.288 39 67.348 38.86 67.248 38.62ZM61.368 27.5L63.768 33.64H58.328L60.748 27.5C60.968 26.82 60.988 26.18 60.988 26.12H61.088C61.088 26.18 61.128 26.82 61.368 27.5ZM79.1605 24.8H78.5005C78.2005 24.8 78.1005 24.9 78.1005 25.2V31.12H70.4805V25.2C70.4805 24.9 70.4005 24.8 70.1005 24.8H69.4405C69.1405 24.8 69.0405 24.9 69.0405 25.2V38.6C69.0405 38.9 69.1405 39 69.4405 39H70.1005C70.4005 39 70.4805 38.9 70.4805 38.6V32.48H78.1005V38.6C78.1005 38.9 78.2005 39 78.5005 39H79.1605C79.4405 39 79.5405 38.9 79.5405 38.6V25.2C79.5405 24.9 79.4405 24.8 79.1605 24.8ZM93.0138 24.8H92.3538C92.1137 24.8 92.0138 24.88 91.9337 25L86.1738 33.38C85.2338 34.78 84.6137 35.78 83.9138 37.14H83.8537C84.0337 35.58 84.0938 34.58 84.0938 32.84V25.2C84.0938 24.9 84.0137 24.8 83.7137 24.8H83.0537C82.7537 24.8 82.6538 24.9 82.6538 25.2V38.6C82.6538 38.9 82.7537 39 83.0537 39H83.7137C83.9138 39 84.0137 38.96 84.1337 38.78L90.0337 30.2C90.9338 28.84 91.4937 27.98 92.1738 26.66H92.2137C92.0337 28.14 91.9537 29.06 91.9537 30.74V38.6C91.9537 38.9 92.0537 39 92.3538 39H93.0138C93.3138 39 93.4137 38.9 93.4137 38.6V25.2C93.4137 24.9 93.3138 24.8 93.0138 24.8ZM96.0005 28.94C96.0005 31.14 97.1405 32.5 99.0805 32.86C98.5405 33.12 98.1805 33.58 97.8805 34.24L95.7805 38.6C95.6605 38.82 95.6805 39 95.9805 39H96.6205C97.1205 39 97.2805 38.94 97.4205 38.64L99.2205 34.78C99.8005 33.52 100.48 33.04 102.06 33.04H104.82V38.6C104.82 38.9 104.92 39 105.22 39H105.88C106.18 39 106.28 38.9 106.28 38.6V25.2C106.28 24.9 106.18 24.8 105.88 24.8H100.2C97.6005 24.8 96.0005 26.32 96.0005 28.94ZM100.34 26.16H104.82V31.68H100.34C98.5605 31.68 97.5205 30.7 97.5205 28.94C97.5205 27.16 98.5405 26.16 100.34 26.16Z" transform="translate(147 30)" fill="#979797"/>
<path d="M1.38907 0.368143V8.77976H5.8849C6.17085 8.77976 6.2707 8.87947 6.2707 9.14791V9.6867C6.2707 9.95514 6.17085 10.0548 5.8849 10.0548H0.372229C0.0998431 10.0548 -2.21866e-07 9.95514 -2.21866e-07 9.6867V0.368143C-2.21866e-07 0.0997069 0.0998431 -4.09601e-07 0.372229 -4.09601e-07H1.0023C1.28826 -4.09601e-07 1.38907 0.0997069 1.38907 0.368143Z" transform="translate(16.7115 70.3187)" fill="#D1894C"/>
<path d="M4.00921 -1.05326e-06C6.60124 -1.05326e-06 8.01843 1.38819 8.01843 3.62484V6.85374C8.01843 9.09135 6.60124 10.4795 4.00921 10.4795C1.41815 10.4795 3.99358e-07 9.09135 3.99358e-07 6.85374V3.62484C3.99358e-07 1.38819 1.41815 -1.05326e-06 4.00921 -1.05326e-06ZM4.00921 1.27507C2.32061 1.27507 1.39004 2.12447 1.39004 3.62484V6.85374C1.39004 8.35507 2.32061 9.20447 4.00921 9.20447C5.69878 9.20447 6.62935 8.35507 6.62935 6.85374V3.62484C6.62935 2.12447 5.69878 1.27507 4.00921 1.27507Z" transform="translate(25.899 70.1068)" fill="#D1894C"/>
<path d="M8.01745 5.29586V7.10876C8.01745 9.09134 6.60027 10.4786 4.00824 10.4786C1.41718 10.4786 -1.6566e-06 9.09135 -1.6566e-06 6.85374V3.62484C-1.6566e-06 1.38819 1.41718 -1.05326e-06 4.00824 -1.05326e-06C6.15631 -1.05326e-06 7.3457 0.849408 7.86042 2.40729C7.94669 2.67669 7.88853 2.78981 7.61712 2.88856L7.02969 3.08701C6.75731 3.18672 6.64292 3.12919 6.54308 2.86076C6.18442 1.79852 5.44094 1.27507 4.00824 1.27507C2.29056 1.27507 1.38907 2.12352 1.38907 3.61046V6.85374C1.38907 8.34068 2.31964 9.20447 4.00824 9.20447C5.69781 9.20447 6.64292 8.34068 6.64292 7.10876V6.1884H4.16624C3.87932 6.1884 3.79499 6.10308 3.79499 5.82026V5.28148C3.79499 5.01304 3.87932 4.91429 4.16624 4.91429H7.63166C7.91761 4.91429 8.01745 5.01304 8.01745 5.29586Z" transform="translate(37.5787 70.1068)" fill="#D1894C"/>
<path d="M0.372228 -9.3623e-07H1.00133C1.28826 -9.3623e-07 1.38907 0.0997064 1.38907 0.368142V9.6867C1.38907 9.95514 1.28826 10.0539 1.00133 10.0539H0.372228C0.0998415 10.0539 -2.95821e-08 9.95514 -2.95821e-08 9.6867V0.368142C-2.95821e-08 0.0997064 0.0998415 -9.3623e-07 0.372228 -9.3623e-07Z" transform="translate(49.4435 70.3196)" fill="#D1894C"/>
<path d="M3.96585 -1.05326e-06C5.95591 -1.05326e-06 7.01541 0.72286 7.71721 2.16666C7.84614 2.42168 7.7744 2.54918 7.51656 2.66231L6.91557 2.9317C6.65772 3.04483 6.55788 3.00264 6.42895 2.74763C5.94137 1.8129 5.26865 1.31725 3.96585 1.31725C2.4052 1.31725 1.57447 1.86946 1.57447 2.91732C1.57447 4.17705 2.89278 4.38989 4.32354 4.54616C6.02765 4.74365 7.91787 5.11178 7.91787 7.40691C7.91787 9.27541 6.5288 10.4795 3.95131 10.4795C1.80421 10.4795 0.672982 9.65794 0.0429078 8.05691C-0.0569348 7.78847 0.0147962 7.67535 0.286213 7.57564L0.873635 7.36377C1.13051 7.2794 1.24489 7.32159 1.36025 7.59002C1.81778 8.63884 2.66305 9.19009 3.95131 9.19009C5.64185 9.19009 6.5288 8.63884 6.5288 7.43472C6.5288 6.21621 5.32584 6.00433 3.99396 5.84902C2.23363 5.66399 0.157291 5.38118 0.157291 3.00265C0.157291 1.23193 1.4882 -1.05326e-06 3.96585 -1.05326e-06Z" transform="translate(54.5681 70.1068)" fill="#D1894C"/>
<path d="M7.53182 0.368143V0.906928C7.53182 1.17632 7.431 1.27411 7.15958 1.27411H4.45317V9.6867C4.45317 9.95514 4.3669 10.0548 4.08095 10.0548H3.45087C3.16491 10.0548 3.07864 9.95514 3.07864 9.6867V1.27411H0.372227C0.0862706 1.27411 3.60901e-06 1.17632 3.60901e-06 0.906928V0.368143C3.60901e-06 0.0997069 0.0862706 -4.09601e-07 0.372227 -4.09601e-07H7.15958C7.431 -4.09601e-07 7.53182 0.0997069 7.53182 0.368143Z" transform="translate(65.33 70.3187)" fill="#D1894C"/>
<path d="M0.372226 -9.3623e-07H1.00133C1.28826 -9.3623e-07 1.38907 0.0997064 1.38907 0.368142V9.6867C1.38907 9.95514 1.28826 10.0539 1.00133 10.0539H0.372226C0.0998397 10.0539 1.89325e-06 9.95514 1.89325e-06 9.6867V0.368142C1.89325e-06 0.0997064 0.0998397 -9.3623e-07 0.372226 -9.3623e-07Z" transform="translate(76.2652 70.3196)" fill="#D1894C"/>
<path d="M4.00921 -1.05326e-06C6.15728 -1.05326e-06 7.34473 0.850366 7.86139 2.40825C7.94669 2.67669 7.8895 2.78981 7.61712 2.88952L7.02969 3.08797C6.75827 3.17234 6.64389 3.13015 6.54308 2.86076C6.18539 1.79852 5.44094 1.27507 4.00921 1.27507C2.3051 1.27507 1.38908 2.12447 1.38908 3.61142V6.86812C1.38908 8.34068 2.31964 9.20543 4.00921 9.20543C5.47002 9.20543 6.19993 8.65226 6.55762 7.59002C6.65746 7.30721 6.77282 7.24968 7.04424 7.34939L7.63166 7.56222C7.90404 7.64754 7.97577 7.77409 7.87496 8.04349C7.35927 9.60137 6.18539 10.4795 4.00921 10.4795C1.43172 10.4795 -2.42573e-06 9.09135 -2.42573e-06 6.85374V3.62484C-2.42573e-06 1.38819 1.41718 -1.05326e-06 4.00921 -1.05326e-06Z" transform="translate(81.6179 70.1068)" fill="#D1894C"/>
<path d="M3.96682 -1.05326e-06C5.95689 -1.05326e-06 7.01638 0.72286 7.71721 2.16666C7.84614 2.42168 7.77537 2.54918 7.51753 2.66231L6.91557 2.9317C6.65772 3.04483 6.55787 3.00264 6.42895 2.74763C5.94234 1.8129 5.26962 1.31725 3.96682 1.31725C2.40617 1.31725 1.57544 1.86946 1.57544 2.91732C1.57544 4.17705 2.89278 4.38989 4.3245 4.54616C6.02861 4.74365 7.91787 5.11178 7.91787 7.40691C7.91787 9.27541 6.52976 10.4795 3.9513 10.4795C1.80517 10.4795 0.673949 9.65794 0.0429054 8.05691C-0.0569371 7.78847 0.0147939 7.67535 0.286211 7.57564L0.874606 7.36377C1.13148 7.2794 1.24586 7.32159 1.36122 7.59002C1.81875 8.63884 2.66304 9.19009 3.9513 9.19009C5.64184 9.19009 6.52977 8.63884 6.52977 7.43472C6.52977 6.21621 5.32584 6.00433 3.99493 5.84902C2.23363 5.66399 0.157292 5.38118 0.157292 3.00265C0.157292 1.23193 1.48917 -1.05326e-06 3.96682 -1.05326e-06Z" transform="translate(92.6663 70.1068)" fill="#D1894C"/>
<path d="M15.5832 7.60687e-07C6.97638 7.60687e-07 1.30161e-06 8.9763 1.30161e-06 20.0502C1.30161e-06 31.1232 6.97638 40.1005 15.5832 40.1005C24.19 40.1005 31.1674 31.1232 31.1674 20.0502C31.1674 8.9763 24.19 7.60687e-07 15.5832 7.60687e-07ZM24.4033 30.3102C24.4033 34.8794 20.901 38.6174 16.6204 38.6174H14.5479C10.2663 38.6174 6.76409 34.8794 6.76409 30.3102V9.79023C6.76409 5.22107 10.2663 1.48311 14.5479 1.48311H16.6204C20.901 1.48311 24.4033 5.22107 24.4033 9.79023V30.3102Z" transform="translate(74.5834 21.7558)" fill="#E2BD63"/>
<path d="M18.0909 28.1148V29.4752H24.4033V30.3112C24.4033 34.8794 20.9001 38.6174 16.6194 38.6174H14.5479C10.2663 38.6174 6.76312 34.8794 6.76312 30.3112V9.79023C6.76312 5.22203 10.2663 1.48311 14.5479 1.48311H16.6194C20.2225 1.48311 23.2653 4.13487 24.1415 7.6974H27.8532C25.0004 3.01319 20.5676 -5.41258e-07 15.5832 -5.41258e-07C6.97638 -5.41258e-07 -4.43731e-07 8.97726 -4.43731e-07 20.0502C-4.43731e-07 31.1242 6.97638 40.1005 15.5832 40.1005C21.5418 40.1005 26.7161 35.7969 29.3392 29.4752V28.1148H18.0909Z" transform="translate(13.188 21.7548)" fill="#508BA4"/>
<path d="M1.44952e-06 -6.14401e-07V38.6337C1.44952e-06 38.6337 0.252031 40.0247 4.90683 40.0247C9.55969 40.0247 22.7321 40.0036 22.7321 40.0036V38.6423L6.68461 38.6337V8.87851L17.9329 8.98205V7.62166H6.68461V1.28466H22.7321V-6.14401e-07H1.44952e-06Z" transform="translate(45.8326 21.8315)" fill="#508BA4"/>
<path d="M15.5832 7.60687e-07C6.97638 7.60687e-07 1.30161e-06 8.9763 1.30161e-06 20.0502C1.30161e-06 31.1232 6.97638 40.1005 15.5832 40.1005C24.19 40.1005 31.1674 31.1232 31.1674 20.0502C31.1674 8.9763 24.19 7.60687e-07 15.5832 7.60687e-07ZM24.4033 30.3102C24.4033 34.8794 20.901 38.6174 16.6194 38.6174H14.547C10.2663 38.6174 6.76409 34.8794 6.76409 30.3102V9.79023C6.76409 5.22107 10.2663 1.48311 14.547 1.48311H16.6194C20.901 1.48311 24.4033 5.22107 24.4033 9.79023V30.3102Z" transform="translate(68.7673 21.7558)" fill="#508BA4"/>
<path d="M3.87738 11.4143H0V0H11.5439V3.8348H3.87738V11.4143Z" transform="translate(0 0.00314331)" fill="#29667D"/>
<path d="M11.541 11.4172H7.66364V3.8348H-1.24245e-06V0H11.541V11.4172Z" transform="translate(105.459)" fill="#29667D"/>
<path d="M11.5439 11.4152H3.54985e-07V7.58043H7.66655V1.46286e-06H11.5439V11.4152Z" transform="translate(105.456 88.5838)" fill="#29667D"/>
<path d="M11.541 11.4181H0V2.51612e-06H3.87738V7.58331H11.541V11.4181Z" transform="translate(0 88.5819)" fill="#29667D"/>
</svg>
