<svg width="60" height="40" viewBox="0 0 60 40" fill="#28667c" xmlns="http://www.w3.org/2000/svg">
<path d="M28.6458 6.06417L21.2229 0L0 16.9805C0.77143 17.6485 1.81286 18.0645 2.96143 18.0645H54.3301C55.4744 18.0645 56.5115 17.6485 57.2786 16.9805L36.0686 0L28.6458 6.06417Z" transform="translate(1.354 21.9355)" fill="#28667c"/>
<path d="M57.2829 1.08403C56.5115 0.412011 55.4743 0 54.3215 0H2.95286C1.80857 0 0.771429 0.416012 0 1.09203L28.6372 24.0007L57.2829 1.08403Z" transform="translate(1.36304)" fill="#28667c"/>
<path d="M0 0V33.233L20.7129 16.8045L0 0Z" transform="translate(0 3.51099)" fill="#28667c"/>
<path d="M0 16.8165L20.7129 33.245V0L0 16.8165Z" transform="translate(39.2871 3.50024)" fill="#28667c"/>
</svg>
