<svg width="30" height="30" viewBox="0 0 30 30" fill="none" xmlns="http://www.w3.org/2000/svg">
<path d="M12.644 16.5015C12.644 17.3681 11.9544 18.0706 11.1037 18.0706C10.253 18.0706 9.56338 17.3681 9.56338 16.5015C9.56338 15.635 10.253 14.9325 11.1037 14.9325C11.9544 14.9326 12.644 15.6351 12.644 16.5015ZM18.8963 14.9326C18.0456 14.9326 17.356 15.635 17.356 16.5016C17.356 17.3681 18.0456 18.0706 18.8963 18.0706C19.747 18.0706 20.4367 17.3681 20.4367 16.5016C20.4367 15.6351 19.7471 14.9326 18.8963 14.9326ZM30 15.627V18.6088C30 20.1059 28.8086 21.3195 27.3388 21.3195H25.4077C23.4943 26.7312 18.608 30 15 30C11.392 30 6.50574 26.7312 4.59225 21.3194H2.66118C1.19142 21.3194 0 20.1059 0 18.6088V15.6269C0 14.5968 0.564265 13.7009 1.3951 13.2423C1.42299 9.00888 2.63431 5.70257 5.00064 3.41686C7.34779 1.14967 10.7121 0 15 0C19.2879 0 22.6522 1.14967 24.9994 3.41681C27.3656 5.70252 28.5769 9.00888 28.6049 13.2423C29.4357 13.7009 30 14.5968 30 15.627ZM24.3676 16.5115C24.3676 15.814 24.3326 15.1586 24.2808 14.5236C23.0998 13.423 20.9557 12.5878 18.2498 12.2775C18.605 12.6844 18.912 13.2197 19.0981 13.9244C17.4406 12.5944 14.1873 12.9109 11.7264 9.93461C11.5853 9.76838 11.4633 9.60955 11.3578 9.4644C11.3566 9.46266 11.3552 9.46131 11.354 9.45961L11.3543 9.45971C10.9165 8.85664 10.7673 8.49793 10.7589 8.89498C10.6867 12.3159 8.30627 14.9829 5.66294 15.3591C5.64623 15.7353 5.63255 16.1152 5.63255 16.5115C5.63255 17.9575 5.86436 19.2753 6.25848 20.4629C7.74328 22.2873 10.1953 22.8024 12.3656 22.939C12.7685 22.2861 13.6725 21.8303 14.7252 21.8303C16.1525 21.8303 17.3096 22.6669 17.3096 23.699C17.3096 24.7309 16.1525 25.5675 14.7252 25.5675C13.6274 25.5675 12.6918 25.0717 12.3173 24.3735C10.8005 24.2837 9.13304 24.0203 7.64691 23.3054C9.73681 26.4433 12.9767 28.1025 15 28.1025C18.1794 28.1025 24.3676 24.0114 24.3676 16.5115ZM27.0027 12.9163C26.8333 5.52891 22.6937 1.62647 15 1.62647C7.30632 1.62647 3.16672 5.52891 2.9973 12.9163H4.02118C4.39554 10.4264 5.18676 8.37864 6.38809 6.80411C8.30245 4.29515 11.1999 3.02295 15 3.02295C18.8001 3.02295 21.6975 4.29515 23.612 6.80411C24.8132 8.37859 25.6045 10.4264 25.9789 12.9163H27.0027Z" fill="#D98A44"/>
</svg>
