<svg width="40" height="40" viewBox="0 0 40 40" fill="#28667c" xmlns="http://www.w3.org/2000/svg">
<path d="M16.8587 22.0021C16.8587 23.1575 15.9392 24.0941 14.8049 24.0941C13.6707 24.0941 12.7512 23.1575 12.7512 22.0021C12.7512 20.8467 13.6707 19.9101 14.8049 19.9101C15.9392 19.9101 16.8587 20.8468 16.8587 22.0021ZM25.1951 19.9101C24.0608 19.9101 23.1413 20.8467 23.1413 22.0022C23.1413 23.1575 24.0608 24.0941 25.1951 24.0941C26.3293 24.0941 27.249 23.1575 27.249 22.0022C27.2489 20.8468 26.3294 19.9101 25.1951 19.9101ZM40 20.836V24.8118C40 26.8079 38.4114 28.426 36.4518 28.426H33.877C31.3257 35.6417 24.8107 40 20 40C15.1893 40 8.67431 35.6417 6.12301 28.4259H3.54824C1.58856 28.4259 0 26.8078 0 24.8117V20.8359C0 19.4624 0.752353 18.2679 1.86013 17.6564C1.89732 12.0118 3.51242 7.60343 6.66752 4.55581C9.79706 1.53289 14.2827 0 20 0C25.7173 0 30.2029 1.53289 33.3325 4.55574C36.4875 7.60336 38.1025 12.0118 38.1399 17.6564C39.2476 18.2679 40 19.4624 40 20.836ZM32.4901 22.0153C32.4901 21.0853 32.4434 20.2115 32.3744 19.3648C30.7997 17.8973 27.9409 16.7838 24.333 16.37C24.8067 16.9126 25.2159 17.6263 25.4641 18.5658C23.2542 16.7925 18.9163 17.2146 15.6352 13.2461C15.4471 13.0245 15.2844 12.8127 15.1438 12.6192C15.1422 12.6169 15.1403 12.6151 15.1387 12.6128L15.1391 12.6129C14.5554 11.8089 14.3563 11.3306 14.3452 11.86C14.249 16.4212 11.075 19.9772 7.55059 20.4788C7.5283 20.9805 7.51007 21.487 7.51007 22.0154C7.51007 23.9433 7.81915 25.7004 8.34464 27.2839C10.3244 29.7164 13.5938 30.4032 16.4875 30.5854C17.0247 29.7149 18.23 29.1071 19.6337 29.1071C21.5367 29.1071 23.0794 30.2225 23.0794 31.5986C23.0794 32.9746 21.5367 34.09 19.6337 34.09C18.1698 34.09 16.9224 33.4289 16.4231 32.498C14.4007 32.3783 12.1774 32.0271 10.1959 31.0739C12.9824 35.2577 17.3023 37.47 20 37.47C24.2392 37.47 32.4901 32.0152 32.4901 22.0153ZM36.0036 17.2218C35.7778 7.37188 30.2582 2.16862 20 2.16862C9.74176 2.16862 4.22229 7.37188 3.99641 17.2218H5.36157C5.86072 13.9018 6.91569 11.1715 8.51745 9.07214C11.0699 5.72687 14.9332 4.0306 20 4.0306C25.0668 4.0306 28.9301 5.72687 31.4827 9.07214C33.0843 11.1715 34.1393 13.9018 34.6385 17.2218H36.0036Z" fill="#28667c"/>
</svg>
