<svg width="30" height="30" viewBox="0 0 30 30" fill="none" xmlns="http://www.w3.org/2000/svg">
<path d="M27.9545 24.5455H23.1818C20.1742 24.5455 17.7273 22.0986 17.7273 19.0911C17.7273 16.0835 20.1742 13.6366 23.1818 13.6366H27.9545C28.3314 13.6366 28.6364 13.3317 28.6364 12.9548V10.9094C28.6364 9.47963 27.5274 8.31687 26.1262 8.20412L22.2104 1.36474C21.8475 0.732193 21.2616 0.280091 20.5604 0.0923594C19.8626 -0.0940936 19.1329 0.00383102 18.5083 0.367341L5.08486 8.18213H2.72729C1.22318 8.18213 0 9.40523 0 10.9094V27.2728C0 28.7768 1.22312 30 2.72729 30H25.9091C27.4132 30 28.6364 28.7769 28.6364 27.2728V25.2273C28.6364 24.8505 28.3314 24.5455 27.9545 24.5455ZM23.056 5.58726L24.5416 8.18213H18.5989L23.056 5.58726ZM7.79509 8.18213L19.1948 1.54582C19.5031 1.36538 19.8633 1.31744 20.2075 1.40936C20.5558 1.50255 20.8461 1.72761 21.0265 2.04254L21.0279 2.04503L10.4868 8.18213H7.79509Z" fill="#D98A44"/>
<path d="M8.86364 0H4.0909C1.83503 0 0 1.835 0 4.09084C0 6.34669 1.83503 8.18169 4.0909 8.18169H8.86364C9.99158 8.18169 10.9091 7.26419 10.9091 6.13627V2.04542C10.9091 0.9175 9.99158 0 8.86364 0ZM4.0909 5.45444C3.3392 5.45444 2.72729 4.84254 2.72729 4.09084C2.72729 3.33915 3.3392 2.72725 4.0909 2.72725C4.84261 2.72725 5.45451 3.33915 5.45451 4.09084C5.45458 4.84254 4.84267 5.45444 4.0909 5.45444Z" transform="translate(19.0909 15.0002)" fill="#D98A44"/>
</svg>
