<svg width="24" height="30" viewBox="0 0 24 30" fill="none" xmlns="http://www.w3.org/2000/svg">
<path d="M7.51708 0.528633C6.34647 1.60939 4.72739 1.85145 3.29135 1.16063C2.7722 0.91084 2.3341 0.565957 1.99113 0.152872L0.0357644 4.47381C-0.0532039 4.67039 0.0461453 4.81857 0.0929461 4.87312C0.139747 4.92761 0.271176 5.04826 0.47914 4.99049L1.90263 4.59463C2.06485 4.54957 2.22883 4.52783 2.39052 4.52783C3.07265 4.52783 3.71466 4.91355 4.0238 5.55275L4.66669 6.88195C4.76058 7.07619 4.9367 7.09558 5.01001 7.09412C5.08191 7.09318 5.25879 7.06986 5.3477 6.87328L8.45796 0C8.11622 0.0982617 7.7926 0.274219 7.51708 0.528633Z" transform="translate(2.52722 22.9058)" fill="#D98A44"/>
<path d="M8.42231 4.47381L6.46694 0.152872C6.12397 0.566016 5.68588 0.910899 5.16673 1.16063C3.73063 1.85145 2.1116 1.60939 0.940998 0.528633C0.665472 0.274219 0.341856 0.0982617 0 0L3.11025 6.87328C3.19922 7.06992 3.3761 7.09318 3.44795 7.09412C3.52125 7.09558 3.69737 7.07619 3.79127 6.88195L4.43416 5.55275C4.74324 4.91355 5.38531 4.52783 6.06744 4.52783C6.22913 4.52783 6.39317 4.54957 6.55533 4.59463L7.97882 4.99049C8.18678 5.04832 8.31827 4.92767 8.36501 4.87312C8.41193 4.81851 8.51128 4.67033 8.42231 4.47381Z" transform="translate(12.5128 22.9058)" fill="#D98A44"/>
<path d="M22.4711 12.1752C20.8471 11.0643 20.3432 8.85855 21.3239 7.15365C21.9134 6.12879 21.6066 5.11605 21.1229 4.51002C20.6392 3.90416 19.7191 3.38004 18.588 3.72603C16.7064 4.30183 14.6658 3.32027 13.9431 1.49121C13.5086 0.391758 12.5248 0 11.7491 0C10.9733 0 9.98953 0.391758 9.55507 1.49127C8.83229 3.32039 6.79195 4.30183 4.91012 3.72609C3.77887 3.38015 2.85899 3.90416 2.3752 4.51008C1.89154 5.11611 1.58475 6.12873 2.17422 7.15371C3.15492 8.85855 2.65102 11.0644 1.02707 12.1753C0.0508257 12.8432 -0.112508 13.8886 0.0600333 14.6442C0.232574 15.3998 0.833829 16.2708 2.00344 16.4494C3.94901 16.7463 5.36089 18.5151 5.21785 20.4763C5.13175 21.6553 5.84802 22.4347 6.54692 22.771C7.24588 23.1073 8.30236 23.1809 9.17128 22.3786C9.89393 21.7114 10.8217 21.3776 11.749 21.3776C12.6767 21.3776 13.6039 21.7112 14.3267 22.3786C15.1957 23.181 16.2523 23.1074 16.9512 22.771C17.6501 22.4348 18.3663 21.6554 18.2802 20.4764C18.1372 18.5152 19.5491 16.7464 21.4946 16.4494C22.6643 16.2708 23.2654 15.3998 23.438 14.6442C23.6106 13.8885 23.4472 12.8431 22.4711 12.1752ZM11.7491 19.683C7.49273 19.683 4.02994 16.2234 4.02994 11.9709C4.02994 7.71849 7.49267 4.25883 11.7491 4.25883C16.0055 4.25883 19.4682 7.71843 19.4682 11.9709C19.4681 16.2233 16.0054 19.683 11.7491 19.683Z" fill="#D98A44"/>
<path d="M6.27992 0C2.81713 0 0 2.81461 0 6.27416C0 9.73371 2.81707 12.5483 6.27992 12.5483C9.74276 12.5483 12.5598 9.73371 12.5598 6.27416C12.5598 2.81461 9.7427 0 6.27992 0ZM9.4982 5.66584L5.58981 8.51789C5.46577 8.60841 5.31693 8.65629 5.16538 8.65629C5.12632 8.65629 5.08709 8.65312 5.04803 8.64668C4.85748 8.61521 4.68752 8.50851 4.57644 8.35054L3.40736 6.68754C3.17893 6.36252 3.25746 5.9141 3.58266 5.68588C3.90792 5.45765 4.35669 5.53605 4.58518 5.86101L5.33294 6.92472L8.64934 4.50468C8.97031 4.2706 9.42055 4.34045 9.65491 4.66119C9.88932 4.98181 9.81912 5.43158 9.4982 5.66584Z" transform="translate(5.46912 5.69678)" fill="#D98A44"/>
</svg>
