<svg width="15" height="15" viewBox="0 0 15 15" fill="none" xmlns="http://www.w3.org/2000/svg">
<path d="M7.39981 0.000681603C3.25798 0.0561162 -0.0544313 3.45898 0.000677787 7.60093C0.056113 11.7411 3.45869 15.0544 7.60035 14.9993C11.7414 14.9436 15.0544 11.5407 14.9993 7.39908C14.9439 3.2586 11.5411 -0.0545899 7.39981 0.000681603ZM7.37764 12.0652L7.33622 12.0646C6.69839 12.0456 6.24871 11.5757 6.26681 10.9474C6.28458 10.3298 6.74518 9.88141 7.36198 9.88141L7.39899 9.88206C8.0546 9.90146 8.49922 10.3666 8.48079 11.0131C8.46253 11.6325 8.00911 12.0652 7.37764 12.0652ZM10.0605 6.74039C9.91053 6.95348 9.5807 7.2181 9.16509 7.5419L8.70743 7.85788C8.45618 8.05321 8.30454 8.23696 8.24764 8.41777C8.2028 8.56011 8.18079 8.59777 8.17688 8.88733L8.17623 8.96087H6.42871L6.43377 8.81299C6.45513 8.20516 6.47013 7.84761 6.72203 7.55218C7.11725 7.08816 7.98905 6.5268 8.02606 6.50299C8.15096 6.40892 8.25628 6.3018 8.33471 6.18734C8.51813 5.93446 8.59933 5.73539 8.59933 5.53974C8.59933 5.26827 8.51878 5.01719 8.35949 4.79365C8.20639 4.57795 7.91552 4.46871 7.49486 4.46871C7.07763 4.46871 6.79198 4.6011 6.62111 4.87273C6.44535 5.15202 6.35649 5.44534 6.35649 5.74501V5.81952H4.55468L4.55794 5.74175C4.60441 4.63811 4.99832 3.84344 5.72827 3.37975C6.18692 3.08447 6.75758 2.9348 7.42345 2.9348C8.29509 2.9348 9.03091 3.14659 9.61021 3.56431C10.1972 3.98757 10.4949 4.62148 10.4949 5.44843C10.4949 5.91099 10.3488 6.3455 10.0605 6.74039Z" fill="#E9C15E"/>
</svg>
